<?xml version="1.0" standalone="no"?>
<!DOCTYPE svg PUBLIC "-//W3C//DTD SVG 20010904//EN"
 "http://www.w3.org/TR/2001/REC-SVG-20010904/DTD/svg10.dtd">
<svg version="1.0" xmlns="http://www.w3.org/2000/svg"
 width="1080.000000pt" height="865.000000pt" viewBox="0 0 1080.000000 865.000000"
 preserveAspectRatio="xMidYMid meet">

<g transform="translate(0.000000,865.000000) scale(0.100000,-0.100000)"
fill="#000000" stroke="none">
<path d="M5451 6633 c-42 -50 -77 -123 -97 -203 -30 -119 -1 -281 69 -385 15
-22 294 -308 621 -636 495 -496 603 -609 648 -680 98 -151 139 -289 139 -469
1 -249 -75 -436 -255 -624 -36 -38 -66 -72 -66 -76 0 -13 129 -95 180 -115 60
-23 212 -31 289 -15 122 26 170 63 466 358 189 190 281 288 297 320 19 40 23
62 23 147 0 89 -3 106 -27 150 -20 37 -306 330 -1131 1155 -608 607 -1110
1106 -1115 1108 -5 1 -24 -14 -41 -35z"/>
<path d="M4787 5974 c-44 -52 -94 -158 -107 -231 -24 -123 3 -257 73 -365 43
-66 636 -659 697 -697 109 -67 262 -86 385 -47 77 25 235 103 235 116 0 9
-1033 1045 -1212 1216 l-43 41 -28 -33z"/>
<path d="M3960 5067 c-36 -12 -87 -35 -114 -51 -66 -38 -554 -525 -596 -593
-45 -74 -57 -159 -36 -243 9 -36 28 -83 43 -104 32 -49 2213 -2236 2230 -2236
6 0 25 18 42 39 79 100 125 266 104 378 -15 76 -47 161 -81 212 -16 23 -280
295 -589 604 -336 337 -576 586 -600 622 -132 198 -181 373 -170 614 9 211 80
398 213 560 71 87 71 85 -17 142 -125 80 -295 102 -429 56z"/>
<path d="M4812 4919 c14 -20 34 -60 44 -89 16 -49 16 -57 2 -96 -15 -43 -15
-43 6 -29 39 28 131 11 197 -36 l30 -21 -32 61 c-31 59 -40 112 -25 157 6 19
3 20 -52 16 -61 -4 -96 7 -162 50 l-35 23 27 -36z"/>
<path d="M6092 4698 c-22 -27 -81 -156 -101 -222 -14 -44 -21 -95 -21 -145 0
-138 37 -217 155 -340 l84 -86 24 25 c102 109 150 294 113 440 -27 106 -73
186 -155 267 -40 40 -77 73 -81 73 -4 0 -12 -6 -18 -12z"/>
<path d="M4732 4564 c-96 -117 -135 -291 -97 -438 30 -116 62 -163 212 -316
161 -165 144 -161 201 -45 61 123 77 182 77 295 0 101 -1 108 -38 184 -32 67
-56 97 -174 217 -75 76 -140 139 -144 139 -4 0 -21 -16 -37 -36z"/>
<path d="M5226 4508 c17 -20 45 -65 61 -99 75 -160 65 -337 -27 -482 -16 -26
-30 -49 -30 -52 0 -2 25 12 56 30 91 55 146 70 264 70 118 0 171 -14 264 -70
51 -30 76 -34 42 -6 -25 21 -78 152 -89 222 -19 121 11 249 83 356 l31 46 -33
-22 c-190 -127 -421 -125 -602 6 l-51 38 31 -37z"/>
<path d="M5250 3744 c-93 -31 -220 -94 -220 -108 0 -6 254 -265 563 -574 l564
-564 35 41 c50 59 86 137 105 227 21 105 8 202 -42 311 -33 72 -52 93 -278
321 -133 135 -268 264 -300 288 -116 86 -279 108 -427 58z"/>
<path d="M6012 3723 c48 -55 72 -145 55 -208 -7 -24 -6 -28 4 -17 28 26 131 9
192 -33 l36 -24 -30 58 c-32 60 -40 114 -26 164 7 26 6 27 -12 18 -38 -21 -97
-12 -167 24 -41 22 -61 28 -52 18z"/>
</g>
</svg>
